/* XPM */
static char *_77c2a7bd61b42f5c0ae078a397a6161gysERMZi2JS8fAsX[] = {
/* columns rows colors chars-per-pixel */
"84 72 42 1 ",
"  c black",
". c #080000",
"X c #100000",
"o c #280000",
"O c #282008",
"+ c #382810",
"@ c #202020",
"# c #282828",
"$ c gray19",
"% c gray22",
"& c #400000",
"* c #600000",
"= c #403018",
"- c #483818",
"; c #503818",
": c #584020",
"> c #684820",
", c #704828",
"< c #680070",
"1 c #004040",
"2 c #005858",
"3 c #007070",
"4 c gray25",
"5 c #484848",
"6 c #505050",
"7 c #606060",
"8 c gray44",
"9 c gray47",
"0 c #E80000",
"q c #805028",
"w c #B07040",
"e c #980088",
"r c #008080",
"t c #888888",
"y c #989898",
"u c gray66",
"i c gray69",
"p c #C0C0C0",
"a c #D0D0D0",
"s c #D8D8D8",
"d c gray91",
"f c #F8F8F8",
/* pixels */
"eeeeeeeeeeeeeeeeeeeeeeeeeeeeeeeeeeeeeeeeeeeeeeeeeeeeeeeeeeeeeeeeeeeeeeeeeeeeeeeeeeee",
"eeeeeeeeeeeeeeeeeeeeeeeeeeeeeeeeeeeeeeeeeeeeeeeeeeeeeeeeeeeeeeeeeeeeeeeeeeeeeeeeeeee",
"eeeeeeeeeeeeeeeeeeeeeeeeeeeeeeeeeeeeeeeeeeeeeeeeeeeeeeeeeeeeeeeeeeeeeeeeeeeeeeeeeeee",
"eeeeeeeeeeeeeeeeeeeeeeeeeeeeeeeeeeeeeeeeeeeeeeeeeeeeeeeeeeeeeeeeeeeeeeeeeeeeeeeeeeee",
"eeeeeeeeeeeeeeeeeeeeeeeeeeeeeeeeeeeeeeeeeeeeeeeeeeeeeeeeeeeeeeeeeeeeeeeeeeeeeeeeeeee",
"eeeeeeeeeeeeeeeeeeeeeeeeeeeeeeeeeeeeeeeeeeeeeeeeeeeeeeeeeeeeeeeeeeeeeeeeeeeeeeeeeeee",
"eeeeeeeeeeeeeeeeeeeeeeeeeeeeeeeeeeeeeeeeeeeeeeeeeeeeeeeeeeeeeeeeeeeeeeeeeeeeeeeeeeee",
"eeeeeeeeeeeeeeeeeeeeeeeeeeeeeeeeeeeeeeeeeeeeeeeeeeeeeeeeeeeeeeeeeeeeeeeeeeeeeeeeeeee",
"eeeeeeeeeeeeeeeeeeeeeeeeeeeeeeeeeeee@@@@@@@@@@@#eeeeeeeeeeeeeeeeeeeeeeeeeeeeeeeeeeee",
"eeeeeeeeeeeeeeeeeeeeeeeeeeeeeeeeeee#%85@@@@@@58#@eeeeeeeeeeeeeeeeeeeeeeeeeeeeeeeeeee",
"eeeeeeeeeeeeeeeeeeeeeeeeeeeeeeeeeee#@ffffffffff@@eeeeeeeeeeeeeeeeeeeeeeeeeeeeeeeeeee",
"eeeeeeeeeeeeeeeeeeeeeeeeeeeeeeeeeee#@dsppffppsd@@eeeeeeeeeeeeeeeeeeeeeeeeeeeeeeeeeee",
"eeeeeeeeeeeeeeeeeeeeeeeeeeeeeeeeeee#8pfssppssfp8@eeeeeeeeeeeeeeeeeeeeeeeeeeeeeeeeeee",
"eeeeeeeeeeeeeeeeeeeeeeeeeeeeeeeeeee#uu9usypfu9uu@eeeeeeeeeeeeeeeeeeeeeeeeeeeeeeeeeee",
"eeeeeeeeeeeeeeeeeeeeeeeeeeeeeeeeeee#80&*696%*X08@eeeeeeeeeeeeeeeeeeeeeeeeeeeeeeeeeee",
"eeeeeeeeeeeeeeeeeeeeeeeeeeeeeeeeee8@8puppsuppup8@8eeeeeeeeeeeeeeeeeeeeeeeeeeeeeeeeee",
"eeeeeeeeeeeeeeeeeeeeeeeeeeeeeeeeeei@8fffffadfff8@teeeeeeeeeeeeeeeeeeeeeeeeeeeeeeeeee",
"eeeeeeeeeeeeeeeeeeeeeeeeeeeeeeeeee<yppfpuy9tudpt88eeeeeeeeeeeeeeeeeeeeeeeeeeeeeeeeee",
"eeeeeeeeeeeeeeeeeeeeeeeeeeeeeeeeeeiyapfusisstiyu8teeeeeeeeeeeeeyeeeeeeeeeeeeeeeeeeee",
"eeeeeeeeeeeeeeeeeeeeeeeeeeeeeeeeeeeytpf9pyyp9iyi8eeeeeeeeeeeeed9eeeeeeeeeeeeeeeeeeee",
"eeeeeeeeeeeeeeeeeeeeeeeeeeeeeeeeeeeetpf96XX69iy6eeeeeeeeeeeeeed9eeeeeeeeeeeeeeeeeeee",
"eeeeeeeeeeeeeeeeeeeeeeeeeeeeeeeee;;=tpf9X..X9it7OOOOOOeeeeeeeed96eeeeeeeeeeeeeeeeeee",
"eeeeeeeeeeeeeeeeeeeeeeeeee>>>>>;;;;=tpf9o..o9it6OOO+OOOOOOOeeeud9eeeeeeeeeeeeeeeeeee",
"eeeeeeeeeeeeeeeeeeeeeee>>>>>>>>>>>>=7afuffffti95OO+-O=+==---+e9d9eeeeeeeeeeeeeeeeeee",
"eeeeeeeeeeeeeeeeeeeee>>>>>>-;>>;;;;;+afuppuuti6OOO+-+=;=-----;ed9eeeeeeeeeeeeeeeeeee",
"eeeeeeeeeeeeeeeeeee>>,,,,>>;y8;;;>>;-79999999yOOO+=-+=;-;;;;;;-u96eeeeeeeeeeeeeeeeee",
"eeeeeeeeeeeeeeeeee>,,,;>,,>yp8;;;--;-9r3%%%%r3@--+=;=-;;;=>>;==9u9eeeeeeeeeeeeeeeeee",
"eeeeeeeeeeeeeeeeee>,,,>;-,ypp8;-;--;9r  2%%r  2#=-=;=-;;=>>-=>>;u9+eeeeeeeeeeeeeeeee",
"eeeeeeeeeeeeeeeee;,qq>>-=yppp8-;;;-973  1%%3  1%#;;;=--;++++>>-77y65+eeeeeeeeeeeeeee",
"eeeeeeeeeeeeeeeee;qqq,>;ypppp8;>>:675%21%%%%21%%#-;=====++O=>;u9%:6%%Oeeeeeeeeeeeeee",
"eeeeeeeeeeeeeeeee;,>yiispppps=:>::96r3%%%22%%%r3%#+==+O=O+O-;;u9997%%Oeeeeeeeeeeeeee",
"eeeeeeeeeeeeeee>-;>yyiwyppps+=;::-9r  2%2112%r  2#=+;=OOOOO-;;8t776%%Oeeeeeeeeeeeeee",
"eeeeeeeeeeeeee>>-;7yypqqppsOO+;;;-93  1%2112%3  1#+++;O+O+O=--+t7765%%eeeeeeeeeeeeee",
"eeeeeeeeeeeeee>>-;yypy87psOOOO--->9%21%%%22%%%21%#+++-=Ou8O==-=t7765%%eeeeeeeeeeeeee",
"eeeeeeeeeeeee>;>>;ypy887sOOOOOO---7%%%%r3%%%r3%%%#++=++u886++===t775%eeeeeeeeeeeeeee",
"eeeeeeeeeeeee;>>>-yp8886++OOOO-==-2%%%r  2%r  2%#OO=-++u888-+++OOeeeeeeeeeeeeeeeeeee",
"eeeeeeeeeeeee;>ppp;8886+--+++O=---2#%%3  1%3  1%#OO==+++s886--++OOeeeeeeeeeeeeeeeeee",
"eeeeeeeeeeeee;ppptp;66eeee--==O->>-2#%%21%%%21%#OOO+=-;-9s886;-+OOOeeeeeeeeeeeeeeeee",
"eeeeeeeeeeeeetpt87t8eeeeeee;;==----%2##%%%%%##@@OOOOOO++;u986--++OOeeeeeeeeeeeeeeeee",
"eeeeeeeeeeeeept88876eeeeeee;;-+++++=-11####@@###O+=++OOO++s886+++OOeeeeeeeeeeeeeeeee",
"eeeeeeeeeeeeet887876eeeeeeee->>>>>-OO##%%%%###OO+===++OOO+us8syy6%Oeeeeeeeeeeeeeeeee",
"eeeeeeeeeeeeet78876eeeeeeee>>-===->;;++OOO OOO+==----=+OOO;u68:765Oeeeeeeeeeeeeeeeee",
"eeeeeeeeeeeeee876eeeeeeeee>-=OOOOO+++;++OO O++=-;-;;;==+OO==y:7655+eeeeeeeeeeeeeeeee",
"eeeeeeeeeeeeeeeeeeeeeeeee>=+=-;;;;-==+-+O  O++---+++++-+OO+=yy65555eeeeeeeeeeeeeeeee",
"eeeeeeeeeeeeeeeeeeeeeeeee>=>>>>>>;;-==OOO  O+=OOOOOOOO++OOO=-976555eeeeeeeeeeeeeeeee",
"eeeeeeeeeeeeeeeeeeeeeeeee=>>>>>>>;;--==O   O+O=======+OOOOOe=97655eeeeeeeeeeeeeeeeee",
"eeeeeeeeeeeeeeeeeeeeeeeee>,,,,,>>;;--==O=  OO==-----==++OOeeee8655eeeeeeeeeeeeeeeeee",
"eeeeeeeeeeeeeeeeeeeeeeee>,,,,,,>>;;-=;;+O  O+=-------==++Oeeeeeeeeeeeeeeeeeeeeeeeeee",
"eeeeeeeeeeeeeeeeeeeeeeee>,,,,,>>>;--=;O=OO O+-=-----===+OOeeeeeeeeeeeeeeeeeeeeeeeeee",
"eeeeeeeeeeeeeeeeeeeeee,,,,,,,,,,;--==++OOO O+=-;;;----++OOeeeeeeeeeeeeeeeeeeeeeeeeee",
"eeeeeeeeeeeeeeeeeeeeee>>>,,,,>>>--=++++O@  O+=-;;;;;--=++Oeeeeeeeeeeeeeeeeeeeeeeeeee",
"eeeeeeeeeeeeeeeeeeeeee;;;-;>>>;---;;-+OO O O+==;;;;;--==+Oeeeeeeeeeeeeeeeeeeeeeeeeee",
"eeeeeeeeeeeeeeeeeeeeee--=+=-;;---=--= OO e +=--;>>>;;-==+++eeeeeeeeeeeeeeeeeeeeeeeee",
"eeeeeeeeeeeeeeeeeeeeeee==+===+++-=+O+OOOeee+=;;;>>>;;-====+eeeeeeeeeeeeeeeeeeeeeeeee",
"eeeeeeeeeeeeeeeeeeeeeee-========+++OOOeeeee+OO-;;>;;-===--+eeeeeeeeeeeeeeeeeeeeeeeee",
"eeeeeeeeeeeeeeeeeeeeeee--==+++++=++OO eeeeeOOO==----==+O===eeeeeeeeeeeeeeeeeeeeeeeee",
"eeeeeeeeeeeeeeeeeeeeeeee =+=====OO    eeeee#OO++=====+++O+eeeeeeeeeeeeeeeeeeeeeeeeee",
"eeeeeeeeeeeeeeeeeeeeeeee              eeeeeeOOO++++++++OOOeeeeeeeeeeeeeeeeeeeeeeeeee",
"eeeeeeeeeeeeeeeeeeeeeeeee             eeeeeeO+OOOOOOOOO+OOeeeeeeeeeeeeeeeeeeeeeeeeee",
"eeeeeeeeeeeeeeeeeeeeeeeeee           eeeeeeeOO+++++++++OOOeeeeeeeeeeeeeeeeeeeeeeeeee",
"eeeeeeeeeeeeeeeeeeeeeeeeee           eeeeeee @OOOOOOOOOOOeeeeeeeeeeeeeeeeeeeeeeeeeee",
"eeeeeeeeeeeeeeeeeeeeeeeee            eeeeeee @## @ @@   eeeeeeeeeeeeeeeeeeeeeeeeeeee",
"eeeeeeeeeeeeeeeeeeeeeeeee             eeeeee            eeeeeeeeeeeeeeeeeeeeeeeeeeee",
"eeeeeeeeeeeeeeeeeeeeeeeee             eeeeeee @@ @ @@  eeeeeeeeeeeeeeeeeeeeeeeeeeeee",
"eeeeeeeeeeeeeeeeeeeeeeeee             eeeeeee          eeeeeeeeeeeeeeeeeeeeeeeeeeeee",
"eeeeeeeeeeeeeeeeeeeeeeeee             eeeeee%@@@@@@@@@@ eeeeeeeeeeeeeeeeeeeeeeeeeeee",
"eeeeeeeeeeeeeeeeeeeeeeeeee           eeeeeee @@###@@@@@  eeeeeeeeeeeeeeeeeeeeeeeeeee",
"eeeeeeeeeeeeeeeeeeeeeeeeeee         55555555@@@@##@@@@@  5677eeeeeeeeeeeeeeeeeeeeeee",
"eeeeeeeeeeeeeeeeeeeeeeeee77655444444%%%%%%$$@@@       @@ %5667eeeeeeeeeeeeeeeeeeeeee",
"eeeeeeeeeeeeeeeeeeeeeeee77766554444%%%%%%%%$$           %%56677eeeeeeeeeeeeeeeeeeeee",
"eeeeeeeeeeeeeeeeeeeeeeeeee776666555555555555555555555555556677eeeeeeeeeeeeeeeeeeeeee",
"eeeeeeeeeeeeeeeeeeeeeeeeeeeeeeeeeeeeeeeeeeeeeeeeeeeeeeeeeeeeeeeeeeeeeeeeeeeeeeeeeeee"
};
