/* XPM */
static char *_e19d095aa5b4b90f8b96384bf86a89bhjNYt8lBh2dUG7dM[] = {
/* columns rows colors chars-per-pixel */
"84 72 40 1 ",
"  c black",
". c #100000",
"X c #282008",
"o c #382810",
"O c #202020",
"+ c #282828",
"@ c gray22",
"# c #400000",
"$ c #403018",
"% c #483818",
"& c #503818",
"* c #584020",
"= c #684820",
"- c #704828",
"; c #004040",
": c #005858",
"> c #007070",
", c #484848",
"< c #505050",
"1 c #606060",
"2 c gray44",
"3 c gray47",
"4 c #D00000",
"5 c #E80000",
"6 c #805028",
"7 c #905830",
"8 c #A86840",
"9 c #B07040",
"0 c #B87848",
"q c #980088",
"w c #008080",
"e c #888888",
"r c #989898",
"t c gray66",
"y c gray69",
"u c #C0C0C0",
"i c #D0D0D0",
"p c #D8D8D8",
"a c gray91",
"s c #F8F8F8",
/* pixels */
"qqqqqqqqqqqqqqqqqqqqqqqqqqqqqqqqqqqqqqqqqqqqqqqqqqqqqqqqqqqqqqqqqqqqqqqqqqqqqqqqqqqq",
"qqqqqqqqqqqqqqqqqqqqqqqqqqqqqqqqqqqqqqqqqqqqqqqqqqqqqqqqqqqqqqqqqqqqqqqqqqqqqqqqqqqq",
"qqqqqqqqqqqqqqqqqqqqqqqqqqqqqqqqqqqqqqqqqqqqqqqqqqqqqqqqqqqqqqqqqqqqqqqqqqqqqqqqqqqq",
"qqqqqqqqqqqqqqqqqqqqqqqqqqqqqqqqqqqqqqqqqqqqqqqqqqqqqqqqqqqqqqqqqqqqqqqqqqqqqqqqqqqq",
"qqqqqqqqqqqqqqqqqqqqqqqqqqqqqqqqqqqqqqqqqqqqqqqqqqqqqqqqqqqqqqqqqqqqqqqqqqqqqqqqqqqq",
"qqqqqqqqqqqqqqqqqqqqqqqqqqqqqqqqqqqqqqqqqqqqqqqqqqqqqqqqqqqqqqqqqqqqqqqqqqqqqqqqqqqq",
"qqqqqqqqqqqqqqqqqqqqqqqqqqqqqqqqqqqqqqqqqqqqqqqqqqqqqqqqqqqqqqqqqqqqqqqqqqqqqqqqqqqq",
"qqqqqqqqqqqqqqqqqqqqqqqqqqqqqqqqqqqqqqqqqqqqqqqqqqqqqqqqqqqqqqqqqqqqqqqqqqqqqqqqqqqq",
"qqqqqqqqqqqqqqqqqqqqstqqqqqqqqqqqqqqqqqqqqqqqqqqqqqqqqqqqqqqqqqqqqqqqqqqqqqqqqqqqqqq",
"qqqqqqqqqqqqqqqqqqqqstqqqqqqqqqqqqqqqqqqqqqqqqqqqqqqrrr9qqqqqqqqqqqqqqqqqqqqqqqqqqqq",
"qqqqqqqqqqqqqqqqqqqss4qqqqqqqqqqqqqqqqO+@@@@@@@@++qr3397=qqqqqqqqqqqqqqqqqqqqqqqqqqq",
"qqqqqqqqqqqqqqqqqqqsu4qqqqqqqqqqqqqqq+@OOOOOOOOOO+O33177=qqqqqqqqqqqqqqqqqqqqqqqqqqq",
"qqqqqqqqqqqqqqqqqqsu44qqqqqqqqqqqqqqq+O2,OOOOOO,2OO31,==1qqqqqqqqqqqqqqqqqqqqqqqqqqq",
"qqqqqqqqqqqqqqqqqqqp44qqqqqqqqqqqqqqq+OssssssssssOO1,1<%%$qqqqqqqqqqqqqqqqqqqqqqqqqq",
"qqqqqqqqqqqqqqqquuttt3qqqqqqqqqqqqqqq+2apuussuupa2O11<%%%%$qqqqqqqqqqqqqqqqqqqqqqqqq",
"qqqqqqqqqqqqqqqruupy3qqqqqqqqqqqqqqqq+tusppuuppsutOq1<%%&&%$qqqqqqqqqqqqqqqqqqqqqqqq",
"qqqqqqqqqqqqqqruuprreqqqqqqqqqqqqqqqq+2t3tarust3t2Oqq$%&==&&$qqqqqqqqqqqqqqqqqqqqqqq",
"qqqqqqqqqqqqqquuuprreqqqqqqqqqqqqqqq2O25.#<3<@..52O2q$%=&&%$$$qqqqqqqqqqqqqqqqqqqqqq",
"qqqqqqqqqqqqqruuprr31qqqqqqqqqqqqqqqyO2utuuptuutu2Oeq$&%&&&%%$$qqqqqqqqqqqqqqqqqqqqq",
"qqqqqqqqqqqqqtrrrrr12qqqqqqqqqqqqqqq3russsssiassse22qq&%&&&&&%$qqqqqqqqqqqqqqqqqqqqq",
"qqqqqqqqqqqqqr277r1e,qqqqqqqqqqqqqqqyrissstr3esast2eqq$$&&=-=&%$qqqqqqqqqqqqqqqqqqqq",
"qqqqqqqqqqqqqqr971e2X=qqqqqqqqqqqqqqqriistpyppeiiy2qqqq$%&=&%%&$$qqqqqqqqqqqqqqqqqqq",
"qqqqqqqqqqqqqqq2222,X&qqqqqqqqq&&&&&&qeys3uspu3it<qqqqq$=&&%%%%%$qqqqqqqqqqqqqqqqqqq",
"qqqqqqqqqqqqqq=XXXXX%&=qq&&&&=====&=&$rys3<..<3ir1Xqqqq==%%%%$$$$oqqqqqqqqqqqqqqqqqq",
"qqqqqqqqqqqqqq=%XXX$$%&q&======&===&=$yys3....3ir1XXXXq==%%%=$$$$Xqqqqqqqqqqqqqqqqqq",
"qqqqqqqqqqqqqq&==&$$$$%==%&==&==%&==&$3istappueir,XXXXXX&&%%%$$$oXqqqqqqqqqqqqqqqqqq",
"qqqqqqqqqqqqqq6%%$$$$$%%=&$%&%%=&%&=&&oiitutttey2XXXoo$$%&&%%$$$oXqqqqqqqqqqqqqqqqqq",
"qqqqqqqqqqqqqq-&%%$$$$$$&=&%%&%%=&$&&&%3issssiirXXo%%X&&$%%%$o$oXqqqqqqqqqqqqqqqqqqq",
"qqqqqqqqqqqqqq6-&%$$$$o$%&%%$$$$&&%$%%%%13rrrr3,Xo%%X$&$&%%%ooooXqqqqqqqqqqqqqqqqqqq",
"qqqqqqqqqqqqqqq66=&$$$$o%%$%oo$o$%&$$o$%333311,,$$&$X=&$&%o%oXoXqqqqqqqqqqqqqqqqqqqq",
"qqqqqqqqqqqqqqq=&%%$$$$o$$o$%Xo$$$%%$%o3w>OOOOw>O$&X%$&Xo%XooXXXqqqqqqqqqqqqqqqqqqqq",
"qqqqqqqqqqqqqqq==&%%$$$$ooXoo$XX%$$%$$3w  :OOw  :O$X%X&XXoooXXXqqqqqqqqqqqqqqqqqqqqq",
"qqqqqqqqqqqqqqqq=%%%$$$ooooXXXX$$%$$$31>  ;OO>  ;OXX%X$XoXoXXXXqqqqqqqqqqqqqqqqqqqqq",
"qqqqqqqqqqqqqqqqq=$$$oooooXXXooX$%%$13,O:;OOOO:;OOOXoXoXXooXXXXXqqqqqqqqqqqqqqqqqqqq",
"qqqqqqqqqqqqqqqqqq&%oooqq$ooooo$%%%%3<w>OOO::OOOw>OXoXoXXoXXXXXXqqqqqqqqqqqqqqqqqqqq",
"qqqqqqqqqqqqqqqqqqqqqqqq$$$%%%%oo%%%3w  :O:;;:Ow  :OXXoXoXX XXXXXqqqqqqqqqqqqqqqqqqq",
"qqqqqqqqqqqqqqqqqqqqqqq&%$%%$$$oooo$1>  ;O:;;:O>  ;OXXoXXX XXXXXXXqqqqqqqqqqqqqqqqqq",
"qqqqqqqqqqqqqqqqqqqqqqq&%%$%%%$$$$oo1O:;OOO::OOO:;OOXXoX  XooXXXXXqqqqqqqqqqqqqqqqqq",
"qqqqqqqqqqqqqqqqqqqqqq&&=%&%$XXXXo$o,OOOOw>OOOw>OOOXXXXX  XooooXXXqqqqqqqqqqqqqqqqqq",
"qqqqqqqqqqqqqqqqqqqqqq&==&$oXXXooo$$oOOOw  :Ow  :OOXXXX   XoXXXXXXXqqqqqqqqqqqqqqqqq",
"qqqqqqqqqqqqqqqqqqqqq&==&$ooooXXo$%%%$OO>  ;O>  ;OXXXXXX  XX XoooXXqqqqqqqqqqqqqqqqq",
"qqqqqqqqqqqqqqqqqqqqq&=&ooXXoXXoXo$$$$$OO:;OOO:;OXXXXXXXX X XooXXXXqqqqqqqqqqqqqqqqq",
"qqqqqqqqqqqqqqqqqqqq&&&==%$o X Xo$$%%%$oOOOOOOOOXXXooooXXX XooXoooXXqqqqqqqqqqqqqqqq",
"qqqqqqqqqqqqqqqqqqqq&&%%$ooXo XXXo$$$$$ooXXX XXXXXXXXXXXXX XXXoo$$XXqqqqqqqqqqqqqqqq",
"qqqqqqqqqqqqqqqqqqqq&====%$oX XXoo$$$$ooooXX XXXooooooooXXXXXo$$$oXXqqqqqqqqqqqqqqqq",
"qqqqqqqqqqqqqqqqqqqq&===&%%oXXoXo$$%%$$ooXoX XXoo%%%%%%ooXXXo$%%$$oXqqqqqqqqqqqqqqqq",
"qqqqqqqqqqqqqqqqqqqq&==&%%%ooXXXXXXXXXXXXX X  o%%oooooXXXXXXo%%%%oXXqqqqqqqqqqqqqqqq",
"qqqqqqqqqqqqqqqqqqqqq&=%==&oo$$$ooXXXXXXXX    %oo$$%%%%$$XoX%%=ooooXqqqqqqqqqqqqqqqq",
"qqqqqqqqqqqqqqqqqqqqq&==&$$ooo%$$%%oXXX        X$%&&&&&%%%oX%=$222oXqqqqqqqqqqqqqqqq",
"qqqqqqqqqqqqqqqqqqqqq&=&$tuuto%%$%X$oXXX       o%&&&&&&&%%%o=%iit31Xqqqqqqqqqqqqqqqq",
"qqqqqqqqqqqqqqqqqqqqqq&$tuur33%%$$$XXoXXX  qXXXo&%&&&**&&%%o=itte31Xqqqqqqqqqqqqqqqq",
"qqqqqqqqqqqqqqqqqqqqqq$tuuttr33%$$o$XXXX  qqqXX%%&&&&===*&%%ittee21Xqqqqqqqqqqqqqqqq",
"qqqqqqqqqqqqqqqqqqqqqq$euutt3,1%$$ooXXXX qqqqqXo%&&%&*===*&%i00e311qqqqqqqqqqqqqqqqq",
"qqqqqqqqqqqqqqqqqqqqqqq2eutr,8=1%ooooXX  qqqqqX$%%&&%&*==&%%1e6e21<qqqqqqqqqqqqqqqqq",
"qqqqqqqqqqqqqqqqqqqqqqq$2tu3,=u1$$ooXXX qqqqqqX$$*==%%&&&%%%5e611<qqqqqqqqqqqqqqqqqq",
"qqqqqqqqqqqqqqqqqqqqqqq==2t311r4$$%%$X qqqqqqqq$&**%$%%%%$$141%1<qqqqqqqqqqqqqqqqqqq",
"qqqqqqqqqqqqqqqqqqqqqqq==%%11$$u4o%X  qqqqqqqqq&X&$$$$$$$$$5e$%%qqqqqqqqqqqqqqqqqqqq",
"qqqqqqqqqqqqqqqqqqqqqqq%%$$$%$ruu4ooX qqqqqqqqqq&$&&&$$$$$142Xooqqqqqqqqqqqqqqqqqqqq",
"qqqqqqqqqqqqqqqqqqqqqqq%$Xooooruuu4oXXqqqqqqqqqq$oooo$&%%%5e2oXoqqqqqqqqqqqqqqqqqqqq",
"qqqqqqqqqqqqqqqqqqqqqqq%$oXXXXuuuur3X qqqqqqqqqq+o$$$$%XXX4e3XXqqqqqqqqqqqqqqqqqqqqq",
"qqqqqqqqqqqqqqqqqqqqqqqq XXXXX3uuuu3 qqqqqqqqqqqqo$$oooooout<XXqqqqqqqqqqqqqqqqqqqqq",
"qqqqqqqqqqqqqqqqqqqqqqqqq XXXX3uuuroqqqqqqqqqqqqqooX      utXXXqqqqqqqqqqqqqqqqqqqqq",
"qqqqqqqqqqqqqqqqqqqqqqqqq      3ur3 qqqqqqqqqqqqqoX +++ O p<  Xqqqqqqqqqqqqqqqqqqqqq",
"qqqqqqqqqqqqqqqqqqqqqqqqOOO     ur  qqqqqqqqqqqqqq O+++++OpO  qqqqqqqqqqqqqqqqqqqqqq",
"qqqqqqqqqqqqqqqqqqqqqqqO++++        qqqqqqqqqqqqqq O+++ O <O  qqqqqqqqqqqqqqqqqqqqqq",
"qqqqqqqqqqqqqqqqqqqqqqqO+@@+O       qqqqqqqqqqqqqq + OO++O    qqqqqqqqqqqqqqqqqqqqqq",
"qqqqqqqqqqqqqqqqqqqqqqqOO+++OO     $%%%%&&&===qqqqq O++ O O  qqqqqqqqqqqqqqqqqqqqqqq",
"qqqqqqqqqqqqqqqqqqqqqqq OOOOO      XXXXXooooo$$%&==  ++OOO   qqqqqqqqqqqqqqqqqqqqqqq",
"qqqqqqqqqqqqqqqqqqqqq=&&          XXXXXXXXXXXXXXoooOO+@@++OOO qqqqqqqqqqqqqqqqqqqqqq",
"qqqqqqqqqqqqqqqqqqqqqq-&&&%%%%%%%$$$$oooXXXXXXXXXXXOO+++++OOO  o%qqqqqqqqqqqqqqqqqqq",
"qqqqqqqqqqqqqqqqqqqqqqqqqq==&&&&&%%%%%%$$$$ooXXXXXXOO+++++OOO  Xo&qqqqqqqqqqqqqqqqqq",
"qqqqqqqqqqqqqqqqqqqqqqqqqqqqqqqqqqqqqqqqqqqq==&&%oXOO       OXXXo&=qqqqqqqqqqqqqqqqq"
};
