/* XPM */
static char *_e2edec99d654e80acedaa641d9f1bb0BlbGBdYQFspJQdJd[] = {
/* columns rows colors chars-per-pixel */
"64 64 28 1 ",
"  c cyan",
". c #332B13",
"X c #272727",
"o c #2B230F",
"O c #43331B",
"+ c #3F2F17",
"@ c #2F2F2F",
"# c #232323",
"$ c #4F3B23",
"% c #4B371B",
"& c black",
"* c #574333",
"= c #434343",
"- c #373737",
"; c gray23",
": c #533F1F",
"> c #13230B",
", c #1F170B",
"< c #533F2F",
"1 c #131313",
"2 c #170F07",
"3 c gray28",
"4 c #5B472B",
"5 c #5F4B37",
"6 c #373F27",
"7 c #1B1B1B",
"8 c gray31",
"9 c #070707",
/* pixels */
"#o>oXXX##XoX..XXXX.XO@o@@@#####o>oXX#oX##XoX..XXXX.XO@o@XXXX.XO@",
";****$$*53$****$$*$$***$$*4*$$$$*:4*****53$****$$*****53$****$$*",
":$$$$+O$$$.$$$$+O$::%O$.$$4$.%$$$$+$$:<$$$.$$$$+O$$.O$O.$$.%$$$$",
"$O$$$++O$O+O$$$+%%::%O$.+O$O.%%$%OO$O$$$$O+O$$$++OO.O$O.+O+%$$%.",
":+O$$O.OOO.+O$$O%%::%O$+++OO+%O%%$O$O**%OO.+O$$O.O+.O$+.+.+%$$%.",
"$.O$$O.OOO+.O$$+%%::%+O+O+OO+%O:%*O$$*$%OO..O$$+.O+.+$O.O..%$%:+",
"*+O$O+.O+..+@$OO%%:OO++.O.OO+%$%O:O$+$O%O+++O.OO.O+.+O+.O..%$%O.",
"%+@.OO.O+..+@.OO%%:OO++.O.OO.%$%O:OX+OOOO+++@.OO.O+.+X+XOX.%$+O.",
"%.@.OOO++...X.O++%:OOX+.X.+$.%$%O%+XOOOOOX+.@OO+O+OX+XXX+X+%$+O+",
"%OX.%+.+XX.XX.+O+OOX.+XOOOOO++%O%$%X$O.O.+XOX:%++OOXX..X+.+%$O.+",
"%+OOO+X+X.O.$$$O+OO.OOOO;;;==33;;*%XO+.X.O.+O-=-OOO....+@O+OOX++",
"%+O$++@..X.21,11,,2,,,,,,,,,2,,#O5<+O..X.+.+=&&&;+.++..+@X+OO.++",
"%+O$++..XX,,,,,,,,,,,,,,,,,,,,,,,,5.+..XX+.=&,##&;X++..+@X++.+X+",
"%++$+.++.,&&                     #3++O+..+-&X   #&X++..XXO++X+++",
"%.O$O..@O,&                     #3O+.X.@O-&X     #&-+...o.O+X++%",
"%+O$O+.XX7&                    #3OO+XO.X-&X       ##-....XO+@++%",
"%+.$%+XOXo&                   #3+OO+XXXX&X         @#;...XOO.++%",
"%++$%..+X7&                  #3OOOO.XO.&X           @X=XXXO+.++%",
"%+O$O+X+X,&                 #3.OOO++XX&X             @@=.X++.+..",
"%+O$++@..7&                #3.OO.O+X.&X              ;$<X.+..+..",
"%+O$++..X7&               #3.OO++++X&X               =*.oXOX.XXX",
"O++O+.++.,&              #3..+O++.+&X               8*..XoX@+..O",
"O.OOO..@O,&             #3X.XO+.+O&X               8*+...o..XX.O",
"O+OOO+.XX7&            #3+X..++.+&X               8*.@.@X.o..o.O",
"%O.$%+XOXo&           #3O....X+.&X               8=@Xo.@oo.o..X@",
"%OO$%..+X,&          #3@XXX...+&X               8<.@...@oX@oX@Xo",
"%+O$O+X+X,&         #3.XOOXXX>&X               8=o..oo.@##XoX@X.",
"%%OO++@..7&        #3..X@X.X.&X               8*XX.X>o.@XXXX..Xo",
"%++$+...X7&       #3Xo.O@XXX&X               8*.X.oXXo.OX#XX.XX.",
"O+OO+.++.,&      #3.XX.O.XX&X               8*O.ooXXoo.O@.XX..Xo",
"O.OOO+.@O,&     #3o.XXoX.X&X               8*+O..oXXXoo@@XXXo.XX",
"O+.$O+.XX7&    #3Xo.XX>X.&X               8=.+O.ooXXXooXX.XXo.XX",
"O++OO+XXOo&   #3XXo.XX.@&X               8*o++O..oXX#@-X..XXo.XX",
"+OOOO+.oO.&  #3.XXo.X..&X               8=.XO.O.ooX9,,,-X.XXo.XX",
".OOO++XoX6&##=X.XXoXX.&X               8=X..+.O.oX1#  #@X.XXo.X.",
"OO+O+..o..6;;+..XX..X&X               8=X..X..O.o2#   #@..XXoXX.",
"O++O+.@.o.X.X.o.XoX.&X               8=XXX.X..O.2#    #-o.Xoo.o.",
"O++O++....@@X.o.XXo&X               8<.XXo.X..O2#     #<o.XX...X",
"+++O+..X.X@.XXo.XX&X               8*XX@.oXX..,#      #=o.XXX.X.",
"++.O+..XoXXXXX..X&X               8<>XX.X@X..2#       #=..XXo.XX",
"++.++.Xo.XoXX.o.&X               8*..@X..X.X2#        #3o..Xo.X@",
"+..+.o.oX@o.XXo&X               8*XoXO..X..2#         #3o.@X...o",
"+..+....X.XXXX&X               8*+...O..X.2#          #3#.Xo..o.",
"+..+....X..XX&X               8=X+X..XX.X2#           #3X.XX..>o",
"+..+......oX&X               8*...X.>X..2#            #4X.X.ooo.",
"+..+...Xoo@&X               8=+.OX..XX.1#             #4@.oooooo",
"+..+.XXXo-&X               8=O+.X..XXX1#              #3@X.ooo.>",
"...+...X-&X               8*@X+.XX...1#               #=X.o+oXo>",
"...+...XX-#              8*..X+.XX..1#                #=...ooooo",
"....o.X.X@$#            8*@...+X+X>2#                 #3Xoooo>o>",
"+...ooXXXXo*#          8=....@+oXX2#                  #<X.oXo>.o",
"+.....XXX..X=@        8=@XXX....X1#                   #=..o..oXX",
"+...XoXXXX.XX*-      8<XXXOXX...2#                    #=o.ooX.oX",
"+......XXo.XXo<;    8*o.X@OoXX+1#                     #<oooooX..",
"+....XX@.oXX.oo*=  8=XXXXO.o.X1#                      #=o.X...XX",
"+....oX.X@X.....*=-<X@..@X...-1#######################<%....ooX@",
"+....o.XXXXoXXXXoOOoXX.o.XXX>.-;<<<<<<<====<<<*<<<<<==%.XXooooXX",
"+...Xo@X.X..OXXXoooXXXo.XXXo.X..oXXo.o@X.X.......ooXXXoXXXoooXXX",
"+X...oXXXX..XXXXo.X.@@.oXX...X+XX+.oXXXXXX.......oX.@@.XXXo.X.@@",
"+...X.X.>XXXX..XoXX.@XXo@X.>.X+.oXX...X.>XX.o....oX.@XXX.XoXX.@X",
"+.+.X.X.o......X.X.XX.oX@.oXXX+.XXX...X.o....o.o..oXX.oX.X.X.XX.",
"+++........>.X.X.XXXX..XX.X..o.oXX...X.....>.ooo..oXX..X.X.XXXX.",
"%++.+oX.....o#X@X.XXX..XX.XooooooX.o.XX..o.oooooo.oX....X@X.XXX.",
"o,,,,21111222211222111222222222222222222222222222222222211222111"
};
